<svg width="16" height="16" viewBox="0 0 16 16" fill="none" xmlns="http://www.w3.org/2000/svg">
<path fill-rule="evenodd" clip-rule="evenodd" d="M13.4 9.89L12.86 8.95C12.8 8.84 12.77 8.72 12.77 8.6V6.96C12.77 4.33 10.71 2.01 8.00003 2.01C5.29003 2.01 3.23003 4.33 3.23003 6.96V8.6C3.23003 8.73 3.20003 8.85 3.14003 8.95L2.59003 9.9C2.16003 10.64 2.69003 11.56 3.54003 11.56H5.66003V11.67C5.66003 12.95 6.70003 14 7.99003 14C9.28003 14 10.32 12.96 10.32 11.67V11.56H12.44C13.29 11.56 13.82 10.64 13.39 9.9L13.4 9.89ZM9.32003 11.66C9.32003 12.39 8.72003 12.99 7.99003 12.99C7.26003 12.99 6.66003 12.39 6.66003 11.66V11.55H9.32003V11.66ZM12.45 10.55H3.54003C3.46003 10.55 3.41003 10.47 3.45003 10.4L3.99003 9.46C4.15003 9.2 4.22003 8.9 4.22003 8.6V6.96C4.22003 4.83 5.89003 3.01 7.99003 3.01C10.09 3.01 11.76 4.82 11.76 6.96V8.6C11.76 8.89 11.83 9.19 11.99 9.46L12.53 10.4C12.57 10.47 12.53 10.56 12.44 10.56L12.45 10.55Z" fill="#FFF500"/>
</svg>
