<svg width="24" height="24" viewBox="0 0 24 24" fill="none" xmlns="http://www.w3.org/2000/svg">
<path d="M14.3375 2.83177C12.9626 1.74201 11.0107 1.74201 9.63579 2.83177L3.68827 7.60442C2.92948 8.18457 2.47801 9.07978 2.46857 10.0352V17.9616C2.46857 20.1924 4.29274 21.9853 6.52386 21.9853H9.00773C9.50478 21.9853 9.90773 21.5824 9.90773 21.0853V17.1828C9.90772 16.9779 10.0767 16.7962 10.3052 16.7936H13.6902C13.921 16.7936 14.0925 16.9764 14.0925 17.1828V21.0853C14.0925 21.5824 14.4955 21.9853 14.9925 21.9853H17.4756C19.7067 21.9853 21.5309 20.1924 21.5309 17.9616L21.531 10.0355L21.5308 10.0231C21.5178 9.06966 21.0671 8.17699 20.3113 7.59586L14.3396 2.83343L14.3375 2.83177Z" fill="#FF0000"/>
</svg>
