<svg width="24" height="24" viewBox="0 0 24 24" fill="none" xmlns="http://www.w3.org/2000/svg">
<path fill-rule="evenodd" clip-rule="evenodd" d="M21.025 15.21L20.115 13.63C20.005 13.44 19.945 13.22 19.945 12.99V10.23C19.935 5.85 16.505 2 12.015 2C7.52499 2 4.08499 5.86 4.08499 10.23V12.99C4.08499 13.22 4.02499 13.44 3.91499 13.62L2.99499 15.21C2.30499 16.39 3.15499 17.86 4.51499 17.86H8.18499V18.14C8.18499 20.25 9.90499 21.97 12.015 21.97C14.125 21.97 15.845 20.25 15.845 18.14V17.86H19.515C20.875 17.86 21.725 16.39 21.035 15.21H21.025ZM14.335 18.14C14.335 19.42 13.295 20.47 12.005 20.47C10.715 20.47 9.67499 19.43 9.67499 18.14V17.86H14.325V18.14H14.335ZM19.505 16.36H4.51499C4.31499 16.36 4.18499 16.14 4.29499 15.96L5.20499 14.38C5.46499 13.95 5.58499 13.46 5.58499 12.99V10.23C5.58499 6.6 8.42499 3.5 12.015 3.5C15.605 3.5 18.445 6.59 18.445 10.23V12.99C18.445 13.47 18.565 13.96 18.825 14.39L19.735 15.97C19.835 16.15 19.715 16.37 19.515 16.37L19.505 16.36Z" fill="#FFF500"/>
</svg>
