<svg width="20" height="20" viewBox="0 0 20 20" fill="none" xmlns="http://www.w3.org/2000/svg">
<path fill-rule="evenodd" clip-rule="evenodd" d="M8.09505 2.66501C9.20304 1.78679 10.776 1.78679 11.884 2.66501L11.8858 2.6664L16.6468 6.46333C17.2571 6.93267 17.6211 7.6536 17.6316 8.42371L17.6318 8.43399L17.6317 14.7536C17.6317 16.5504 16.1624 17.9941 14.3659 17.9941H12.3011C11.7764 17.9941 11.3511 17.5688 11.3511 17.0441V14.1326C11.3511 13.9862 11.2291 13.8547 11.0627 13.8547H8.97534C8.8107 13.8567 8.6907 13.9874 8.6907 14.1326L8.6907 17.0441C8.6907 17.5688 8.26538 17.9941 7.7407 17.9941H5.63403C3.83753 17.9941 2.36829 16.5504 2.36829 14.7536V8.43348C2.37591 7.66176 2.74051 6.93876 3.35319 6.47017L8.09505 2.66501ZM9.02839 3.83928L4.28457 7.64602L4.26812 7.65885C4.01817 7.84824 3.8723 8.13856 3.86829 8.44512V14.7536C3.86829 15.7078 4.65171 16.4941 5.63403 16.4941H7.1907L7.1907 14.1327C7.1907 14.1327 7.1907 14.1327 7.1907 14.1327C7.19069 13.1483 7.99116 12.3612 8.9671 12.3547L8.97209 12.3547L11.0627 12.3547C12.0433 12.3547 12.8511 13.1436 12.8511 14.1326V16.4941H14.3659C15.3483 16.4941 16.1317 15.7078 16.1317 14.7536V8.43984C16.1261 8.13219 15.9797 7.84121 15.7296 7.65023L15.7172 7.64054L10.9523 3.84053C10.952 3.84032 10.9525 3.84074 10.9523 3.84053C10.3907 3.39599 9.5902 3.39516 9.02839 3.83928Z" fill="#FF0000"/>
</svg>
