<svg width="20" height="20" viewBox="0 0 20 20" fill="none" xmlns="http://www.w3.org/2000/svg">
<path fill-rule="evenodd" clip-rule="evenodd" d="M7.20001 3.17423C7.94219 2.44182 8.94933 2.02002 10.0004 2.02002C11.0472 2.02002 12.0576 2.43102 12.8043 3.17773L12.8078 3.18124C13.5402 3.92342 13.962 4.93057 13.962 5.98162C13.962 7.02844 13.551 8.0388 12.8043 8.78551L12.8008 8.78902C12.0586 9.52143 11.0514 9.94322 10.0004 9.94322C8.95356 9.94322 7.94319 9.53221 7.19649 8.78551L7.19298 8.78199C6.46056 8.03981 6.03878 7.03267 6.03878 5.98162C6.03878 4.9348 6.44978 3.92444 7.19649 3.17773L7.20001 3.17423ZM8.2554 4.24014C7.79488 4.70159 7.53878 5.32807 7.53878 5.98162C7.53878 6.63095 7.79998 7.26064 8.25892 7.72661C8.72037 8.18712 9.34683 8.44322 10.0004 8.44322C10.6497 8.44322 11.2794 8.18201 11.7454 7.72307C12.2059 7.26162 12.462 6.63516 12.462 5.98162C12.462 5.3323 12.2008 4.70261 11.7418 4.23664C11.2804 3.77612 10.6539 3.52002 10.0004 3.52002C9.35106 3.52002 8.72137 3.78122 8.2554 4.24014Z" fill="#FF0000"/>
<path fill-rule="evenodd" clip-rule="evenodd" d="M10.0003 12.2245C8.61817 12.2245 7.30412 12.7548 6.33349 13.6977C5.5495 14.4593 5.04875 15.4354 4.88597 16.4799H15.1146C14.9518 15.4354 14.4511 14.4593 13.6671 13.6977C12.6965 12.7548 11.3824 12.2245 10.0003 12.2245ZM5.28831 12.6218C6.54355 11.4024 8.23441 10.7245 10.0003 10.7245C11.7662 10.7245 13.457 11.4024 14.7123 12.6218C15.9689 13.8425 16.6727 15.4986 16.6727 17.2299C16.6727 17.6441 16.3369 17.9799 15.9227 17.9799H4.07791C3.6637 17.9799 3.32791 17.6441 3.32791 17.2299C3.32791 15.4986 4.0317 13.8425 5.28831 12.6218Z" fill="#FF0000"/>
</svg>
