<svg width="16" height="16" viewBox="0 0 16 16" fill="none" xmlns="http://www.w3.org/2000/svg">
<path fill-rule="evenodd" clip-rule="evenodd" d="M13.32 9.72L12.8 8.82C12.76 8.75 12.74 8.66 12.74 8.57V7C12.74 4.4 10.7 2.1 8.01004 2.1C5.32004 2.1 3.28004 4.41 3.28004 7V8.57C3.28004 8.66 3.26004 8.75 3.22004 8.81L2.70004 9.72C2.22004 10.54 2.81004 11.56 3.76004 11.56H5.62004C5.66004 12.85 6.72004 13.89 8.02004 13.89C9.32004 13.89 10.38 12.85 10.42 11.56H12.28C13.23 11.56 13.81 10.54 13.34 9.72H13.32ZM8.00004 12.59C7.42004 12.59 6.94004 12.13 6.90004 11.56H9.09004C9.05004 12.13 8.58004 12.59 7.99004 12.59H8.00004ZM3.88004 10.26L4.33004 9.47C4.50004 9.19 4.58004 8.87 4.58004 8.56V6.99C4.58004 5.04 6.11004 3.39 8.01004 3.39C9.91004 3.39 11.44 5.03 11.44 6.99V8.56C11.44 8.87 11.52 9.19 11.69 9.47L12.14 10.26H3.88004Z" fill="#FFF500"/>
</svg>
