<svg width="24" height="24" viewBox="0 0 24 24" fill="none" xmlns="http://www.w3.org/2000/svg">
<path fill-rule="evenodd" clip-rule="evenodd" d="M9.63589 2.8318C11.0107 1.74204 12.9627 1.74204 14.3376 2.8318L14.3397 2.83346L20.3114 7.59589C21.0672 8.17703 21.5179 9.06969 21.5309 10.0232L21.5311 10.0355L21.531 17.9616C21.531 20.1924 19.7068 21.9854 17.4757 21.9854H14.9351C14.2723 21.9854 13.7351 21.4481 13.7351 20.7854V17.1829C13.7351 16.9764 13.5635 16.7936 13.3328 16.7936H10.7145C10.486 16.7962 10.317 16.9779 10.317 17.1829V20.7854C10.317 21.4481 9.77978 21.9854 9.11704 21.9854H6.52395C4.29283 21.9854 2.46866 20.1924 2.46866 17.9616V10.0353C2.4781 9.07981 2.92957 8.1846 3.68836 7.60445L9.63589 2.8318ZM10.7559 4.24088L4.80598 9.0155C4.79947 9.02072 4.7929 9.02585 4.78625 9.03089C4.46276 9.276 4.27378 9.65197 4.26866 10.0492V17.9616C4.26866 19.1813 5.26984 20.1854 6.52395 20.1854H8.51704V17.1829C8.51704 17.1829 8.51704 17.1829 8.51704 17.1829C8.51702 15.9711 9.50256 15.0016 10.7046 14.9936L10.7106 14.9936L13.3328 14.9936C14.5405 14.9936 15.5351 15.9653 15.5351 17.1829V20.1854H17.4757C18.7298 20.1854 19.731 19.1813 19.731 17.9616V10.0425C19.7239 9.644 19.5343 9.26727 19.2107 9.02017L19.1958 9.00855L13.2195 4.24242C13.2192 4.24217 13.2188 4.24193 13.2185 4.24168C12.4994 3.67235 11.4754 3.67208 10.7559 4.24088Z" fill="#FF0000"/>
</svg>
