<svg width="16" height="16" viewBox="0 0 16 16" fill="none" xmlns="http://www.w3.org/2000/svg">
<path d="M9.43004 2.6069C8.58911 1.94035 7.39546 1.94035 6.55453 2.6069L3.12292 5.36063C2.65408 5.71969 2.37486 6.27353 2.36902 6.86492V11.743C2.36902 12.9304 3.33161 13.893 4.51902 13.893H6.25388C6.61287 13.893 6.90388 13.6019 6.90388 13.243V10.8969H9.09607V13.243C9.09607 13.6019 9.38708 13.893 9.74607 13.893H11.4807C12.6681 13.893 13.6307 12.9304 13.6307 11.743L13.6307 6.86635L13.6306 6.85744C13.6225 6.26736 13.3438 5.71518 12.8768 5.35565L9.43156 2.6081L9.43004 2.6069Z" fill="#FF0000"/>
</svg>
