<svg width="16" height="16" viewBox="0 0 16 16" fill="none" xmlns="http://www.w3.org/2000/svg">
<path fill-rule="evenodd" clip-rule="evenodd" d="M6.60088 2.50325C7.41458 1.85829 8.56992 1.85829 9.38362 2.50325L9.38479 2.50418L12.9871 5.37703C13.4329 5.71963 13.6986 6.24593 13.7063 6.80799L13.7064 6.81484L13.7064 11.98C13.7064 13.0845 12.8109 13.98 11.7064 13.98H9.7897C9.4031 13.98 9.0897 13.6666 9.0897 13.28V10.8484H6.94225V13.28C6.94225 13.6666 6.62885 13.98 6.24225 13.98H4.29395C3.18938 13.98 2.29395 13.0846 2.29395 11.98V6.81512C2.29951 6.25194 2.5657 5.72418 3.01322 5.38221L6.60088 2.50325ZM7.22313 3.28607L3.62324 6.17485C3.41758 6.33069 3.29712 6.5698 3.29395 6.82282V11.98C3.29395 12.5323 3.74166 12.98 4.29395 12.98H5.94225V10.3484C5.94225 10.0722 6.16611 9.84836 6.44225 9.84836H9.5897C9.86584 9.84836 10.0897 10.0722 10.0897 10.3484V12.98H11.7064C12.2587 12.98 12.7064 12.5323 12.7064 11.98V6.81863C12.702 6.56495 12.5813 6.32534 12.3757 6.16834L12.3673 6.16196L8.76245 3.28693C8.76227 3.28679 8.76263 3.28707 8.76245 3.28693C8.31303 2.93112 7.6727 2.93054 7.22313 3.28607Z" fill="#FF0000"/>
</svg>
