<svg width="20" height="20" viewBox="0 0 20 20" fill="none" xmlns="http://www.w3.org/2000/svg">
<path fill-rule="evenodd" clip-rule="evenodd" d="M7.25722 3.155C7.98493 2.43687 8.97201 2.0239 10.0006 2.0239C11.0264 2.0239 12.0157 2.42661 12.7464 3.15734L12.7487 3.15968C13.4669 3.88738 13.8798 4.87447 13.8798 5.9031C13.8798 6.92889 13.4771 7.91813 12.7464 8.64885L12.7441 8.6512C12.0163 9.36932 11.0293 9.78229 10.0006 9.78229C8.97483 9.78229 7.9856 9.37958 7.25487 8.64885L7.25253 8.64651C6.5344 7.91881 6.12143 6.93172 6.12143 5.9031C6.12143 4.8773 6.52415 3.88806 7.25487 3.15734L7.25722 3.155ZM7.96081 3.86561C7.42089 4.40616 7.12143 5.13947 7.12143 5.9031C7.12143 6.66389 7.42734 7.39933 7.96313 7.9429C8.50368 8.48283 9.237 8.78229 10.0006 8.78229C10.7614 8.78229 11.4969 8.47639 12.0404 7.94059C12.5804 7.40004 12.8798 6.66672 12.8798 5.9031C12.8798 5.14229 12.5739 4.40683 12.0381 3.86327C11.4976 3.32335 10.7643 3.0239 10.0006 3.0239C9.23983 3.0239 8.50437 3.32981 7.96081 3.86561Z" fill="#FF0000"/>
<path fill-rule="evenodd" clip-rule="evenodd" d="M10 11.9201C8.47177 11.9201 7.01652 12.5066 5.94038 13.5519C4.9878 14.4773 4.41088 15.6897 4.29167 16.9759H15.7083C15.5891 15.6897 15.0122 14.4773 14.0596 13.5519C12.9835 12.5066 11.5282 11.9201 10 11.9201ZM5.24359 12.8347C6.50947 11.605 8.21594 10.9201 10 10.9201C11.7841 10.9201 13.4905 11.605 14.7564 12.8347C16.0232 14.0653 16.7314 15.7332 16.7314 17.4759C16.7314 17.752 16.5076 17.9759 16.2314 17.9759H3.76855C3.49241 17.9759 3.26855 17.752 3.26855 17.4759C3.26855 15.7332 3.97679 14.0653 5.24359 12.8347Z" fill="#FF0000"/>
</svg>
