<svg width="20" height="20" viewBox="0 0 20 20" fill="none" xmlns="http://www.w3.org/2000/svg">
<path d="M10.0007 2.02002C8.94961 2.02002 7.94248 2.44182 7.2003 3.17423L7.19677 3.17773C6.45007 3.92444 6.03906 4.9348 6.03906 5.98162C6.03906 7.03267 6.46086 8.0398 7.19327 8.78198L7.19677 8.78551C7.94348 9.53221 8.95385 9.94322 10.0007 9.94322C11.0517 9.94322 12.0588 9.52142 12.801 8.78901L12.8045 8.78551C13.5513 8.0388 13.9623 7.02844 13.9623 5.98162C13.9623 4.93057 13.5405 3.92343 12.8081 3.18125L12.8045 3.17773C12.0578 2.43102 11.0475 2.02002 10.0007 2.02002Z" fill="#FF0000"/>
<path d="M5.28853 12.6217C6.54376 11.4023 8.23463 10.7244 10.0005 10.7244C11.7664 10.7244 13.4572 11.4023 14.7125 12.6217C15.9691 13.8424 16.6729 15.4985 16.6729 17.2298C16.6729 17.644 16.3371 17.9798 15.9229 17.9798H4.07812C3.66391 17.9798 3.32812 17.644 3.32812 17.2298C3.32812 15.4985 4.03191 13.8424 5.28853 12.6217Z" fill="#FF0000"/>
</svg>
