<svg width="20" height="20" viewBox="0 0 20 20" fill="none" xmlns="http://www.w3.org/2000/svg">
<path fill-rule="evenodd" clip-rule="evenodd" d="M17.2228 12.45L16.5028 11.21C16.4328 11.08 16.3928 10.94 16.3928 10.79V8.62C16.3928 5.1 13.6328 2 10.0028 2C6.3728 2 3.6128 5.1 3.6128 8.61V10.78C3.6128 10.93 3.5728 11.08 3.5028 11.19L2.7828 12.44C2.1828 13.48 2.9228 14.76 4.1128 14.76H6.8328V14.82C6.8328 16.57 8.2528 17.99 10.0028 17.99C11.7528 17.99 13.1728 16.57 13.1728 14.82V14.76H15.8928C17.0828 14.76 17.8328 13.47 17.2228 12.44V12.45ZM11.6728 14.82C11.6728 15.74 10.9228 16.49 10.0028 16.49C9.0828 16.49 8.3328 15.74 8.3328 14.82V14.76H11.6628V14.82H11.6728ZM15.9228 13.25C15.9228 13.25 15.9128 13.26 15.9028 13.27C15.9028 13.27 15.9028 13.27 15.8828 13.27H4.1228H4.1028C4.1028 13.27 4.0928 13.27 4.0828 13.25V13.23C4.0828 13.23 4.0828 13.22 4.0828 13.2L4.7928 11.96C5.0128 11.6 5.1128 11.19 5.1128 10.78V8.61C5.1128 5.84 7.2828 3.49 10.0028 3.49C12.7228 3.49 14.8928 5.84 14.8928 8.61V10.78C14.8928 11.18 14.9928 11.59 15.2128 11.96L15.9228 13.2C15.9228 13.2 15.9228 13.22 15.9228 13.23C15.9228 13.23 15.9228 13.24 15.9228 13.25Z" fill="#FFF500"/>
</svg>
