<svg width="20" height="20" viewBox="0 0 20 20" fill="none" xmlns="http://www.w3.org/2000/svg">
<path fill-rule="evenodd" clip-rule="evenodd" d="M8.20112 2.63099C9.24656 1.80234 10.7313 1.80234 11.7768 2.63099L11.7779 2.63192L16.703 6.55964C17.2689 6.99397 17.6059 7.66131 17.6157 8.37357L17.6158 8.38043L17.6157 14.9151C17.6157 16.6183 16.2224 17.9905 14.5143 17.9905H12.3724C11.9858 17.9905 11.6724 17.6771 11.6724 17.2905V14.2731C11.6724 13.9669 11.4203 13.7101 11.0987 13.7101H8.93873C8.6194 13.713 8.37036 13.9688 8.37037 14.2731V17.2834C8.37037 17.67 8.05697 17.9834 7.67037 17.9834H5.5698C5.54229 17.988 5.51402 17.9905 5.48517 17.9905C3.77708 17.9905 2.38379 16.6183 2.38379 14.9151V8.38262C2.39084 7.66909 2.72841 7.00005 3.29656 6.56672L8.20112 2.63099ZM5.40883 16.9891C5.43372 16.9853 5.45922 16.9834 5.48517 16.9834H7.37037V14.2731C7.37035 13.4093 8.07323 12.7158 8.93354 12.7101L8.93686 12.7101L11.0987 12.7101C11.9631 12.7101 12.6724 13.4051 12.6724 14.2731V16.9905H14.5143C15.6797 16.9905 16.6157 16.0566 16.6157 14.9151V8.38415C16.6092 7.98033 16.4173 7.59973 16.0916 7.35101L16.0833 7.34464L11.1556 3.41467C11.1554 3.41454 11.1558 3.4148 11.1556 3.41467C10.4744 2.87514 9.50474 2.87458 8.82341 3.41378L3.90648 7.35944C3.58027 7.60662 3.38848 7.98694 3.38379 8.39023V14.9151C3.38379 16.0316 4.27925 16.9494 5.40883 16.9891Z" fill="#FF0000"/>
</svg>
