<svg width="20" height="20" viewBox="0 0 20 20" fill="none" xmlns="http://www.w3.org/2000/svg">
<path d="M11.8839 2.66453C10.7759 1.7863 9.20291 1.7863 8.09493 2.66453L3.35307 6.46968C2.74039 6.93826 2.37579 7.66127 2.36816 8.433V14.7531C2.36816 16.5499 3.83741 17.9937 5.6339 17.9937H7.51761C7.71652 17.9937 7.90728 17.9146 8.04794 17.774C8.18859 17.6333 8.26761 17.4426 8.26761 17.2437L8.2676 14.1321C8.2676 13.9869 8.3876 13.8562 8.55224 13.8542H11.4557C11.6221 13.8542 11.7441 13.9857 11.7441 14.1322V17.2437C11.7441 17.6579 12.0799 17.9937 12.4941 17.9937H14.3658C16.1623 17.9937 17.6316 16.5499 17.6316 14.7531L17.6316 8.43351L17.6315 8.42322C17.6209 7.65311 17.257 6.93218 16.6467 6.46284L11.8856 2.66591L11.8839 2.66453Z" fill="#FF0000"/>
</svg>
