<svg width="24" height="24" viewBox="0 0 24 24" fill="none" xmlns="http://www.w3.org/2000/svg">
<path fill-rule="evenodd" clip-rule="evenodd" d="M9.63592 2.83178C11.0108 1.74203 12.9627 1.74203 14.3376 2.83178L14.3397 2.83345L20.3114 7.59588C21.0672 8.17701 21.5179 9.06968 21.531 10.0232L21.5311 10.0355L21.531 17.9616C21.531 20.1924 19.7069 21.9854 17.4757 21.9854H14.9351C14.2724 21.9854 13.7351 21.4481 13.7351 20.7854V17.1829C13.7351 16.9764 13.5635 16.7936 13.3328 16.7936H10.7145C10.486 16.7962 10.3171 16.9779 10.3171 17.1828V20.7854C10.3171 21.4481 9.77981 21.9854 9.11707 21.9854H6.52398C4.29286 21.9854 2.46869 20.1924 2.46869 17.9616V10.0353C2.47813 9.0798 2.9296 8.18459 3.68839 7.60444L9.63592 2.83178ZM10.756 4.24086L4.80601 9.01548C4.79951 9.0207 4.79293 9.02583 4.78628 9.03087C4.46279 9.27599 4.27381 9.65195 4.26869 10.0492V17.9616C4.26869 19.1813 5.26987 20.1854 6.52398 20.1854H8.51707V17.1829C8.51707 17.1829 8.51707 17.1829 8.51707 17.1829C8.51705 15.971 9.50259 15.0016 10.7047 14.9936L10.7107 14.9935L13.3328 14.9936C14.5405 14.9936 15.5351 15.9652 15.5351 17.1829V20.1854H17.4757C18.7299 20.1854 19.731 19.1813 19.731 17.9616V10.0425C19.7239 9.64399 19.5343 9.26726 19.2107 9.02016L19.1959 9.00853L13.2195 4.2424C13.2192 4.24216 13.2189 4.24191 13.2186 4.24167C12.4994 3.67233 11.4754 3.67207 10.756 4.24086Z" fill="#FF0000"/>
</svg>
