<svg width="24" height="24" viewBox="0 0 24 24" fill="none" xmlns="http://www.w3.org/2000/svg">
<path fill-rule="evenodd" clip-rule="evenodd" d="M21.02 15.1L20.12 13.54C20.03 13.38 19.98 13.19 19.98 12.99V10.27C19.97 5.87 16.53 2 12 2C7.46998 2 4.02998 5.89 4.02998 10.27V12.99C4.02998 13.19 3.97998 13.38 3.88998 13.53L2.98998 15.1C2.24998 16.37 3.16998 17.95 4.62998 17.95H8.07998V18.06C8.07998 20.23 9.83998 21.99 12.01 21.99C14.18 21.99 15.94 20.23 15.94 18.06V17.95H19.39C20.85 17.95 21.77 16.37 21.03 15.1H21.02ZM14.13 18.06C14.13 19.23 13.17 20.19 12 20.19C10.83 20.19 9.86998 19.23 9.86998 18.06V17.95H14.13V18.06Z" fill="#FFF500"/>
</svg>
