<svg width="20" height="20" viewBox="0 0 20 20" fill="none" xmlns="http://www.w3.org/2000/svg">
<path fill-rule="evenodd" clip-rule="evenodd" d="M7.19998 3.17423C7.94216 2.44182 8.9493 2.02002 10.0003 2.02002C11.0472 2.02002 12.0575 2.43102 12.8042 3.17773L12.8077 3.18124C13.5402 3.92342 13.9619 4.93057 13.9619 5.98162C13.9619 7.02844 13.5509 8.0388 12.8042 8.78551L12.8007 8.78902C12.0585 9.52143 11.0514 9.94322 10.0003 9.94322C8.95353 9.94322 7.94316 9.53221 7.19646 8.78551L7.19294 8.78199C6.46053 8.03981 6.03875 7.03267 6.03875 5.98162C6.03875 4.9348 6.44975 3.92444 7.19646 3.17773L7.19998 3.17423ZM8.25537 4.24014C7.79485 4.70159 7.53875 5.32807 7.53875 5.98162C7.53875 6.63095 7.79995 7.26064 8.25889 7.72661C8.72034 8.18712 9.3468 8.44322 10.0003 8.44322C10.6497 8.44322 11.2794 8.18201 11.7453 7.72307C12.2058 7.26162 12.4619 6.63516 12.4619 5.98162C12.4619 5.3323 12.2007 4.70261 11.7418 4.23664C11.2804 3.77612 10.6539 3.52002 10.0003 3.52002C9.35103 3.52002 8.72134 3.78122 8.25537 4.24014Z" fill="#FF0000"/>
<path fill-rule="evenodd" clip-rule="evenodd" d="M10.0003 12.2245C8.61813 12.2245 7.30409 12.7548 6.33346 13.6977C5.54947 14.4593 5.04872 15.4354 4.88594 16.4799H15.1146C14.9518 15.4354 14.451 14.4593 13.6671 13.6977C12.6964 12.7548 11.3824 12.2245 10.0003 12.2245ZM5.28828 12.6218C6.54352 11.4024 8.23438 10.7245 10.0003 10.7245C11.7661 10.7245 13.457 11.4024 14.7122 12.6218C15.9689 13.8425 16.6726 15.4986 16.6726 17.2299C16.6726 17.6441 16.3369 17.9799 15.9226 17.9799H4.07788C3.66367 17.9799 3.32788 17.6441 3.32788 17.2299C3.32788 15.4986 4.03167 13.8425 5.28828 12.6218Z" fill="#FF0000"/>
</svg>
