<svg width="24" height="24" viewBox="0 0 24 24" fill="none" xmlns="http://www.w3.org/2000/svg">
<path fill-rule="evenodd" clip-rule="evenodd" d="M9.6985 2.81032C11.0363 1.74991 12.9361 1.74991 14.2739 2.81032L14.2757 2.81171L20.3486 7.6549C21.0781 8.21522 21.5128 9.07606 21.5254 9.99516L21.5255 10.0054L21.5254 18.0645C21.5254 20.2399 19.7462 21.9906 17.5672 21.9906H15.7898L15.7724 21.9904C14.7542 21.9668 13.9288 21.1405 13.929 20.1144C13.929 20.1144 13.929 20.1145 13.929 20.1144V17.2727C13.929 16.97 13.679 16.7117 13.3548 16.7117H10.6917C10.3701 16.7149 10.1234 16.972 10.1234 17.2726V20.1056C10.1234 21.1686 9.23434 21.9906 8.20923 21.9906H6.43184C4.25291 21.9906 2.47363 20.2399 2.47363 18.0645V10.0068C2.48273 9.08596 2.91815 8.22281 3.65049 7.66362L9.6985 2.81032ZM10.6319 3.98455L4.58173 8.83957L4.56529 8.8524C4.19578 9.13238 3.97916 9.56274 3.97363 10.0183V18.0645C3.97363 19.3973 5.06708 20.4906 6.43184 20.4906H8.20923C8.45043 20.4906 8.62343 20.2963 8.62343 20.1056V17.2727C8.62343 17.2727 8.62343 17.2727 8.62343 17.2727C8.62341 16.1328 9.55067 15.2193 10.6837 15.2118L10.6887 15.2117L13.3548 15.2117C14.4932 15.2117 15.429 16.1274 15.429 17.2727V20.1144C15.4289 20.3099 15.5867 20.4823 15.8007 20.4906H17.5672C18.932 20.4906 20.0254 19.3973 20.0254 18.0645V10.0111C20.0178 9.55459 19.8007 9.12381 19.4315 8.84188L19.4191 8.83219L13.3422 3.98584C13.3419 3.98563 13.3416 3.98542 13.3414 3.98521C12.5499 3.3585 11.4235 3.35828 10.6319 3.98455Z" fill="#FF0000"/>
</svg>
