<svg width="16" height="16" viewBox="0 0 16 16" fill="none" xmlns="http://www.w3.org/2000/svg">
<path fill-rule="evenodd" clip-rule="evenodd" d="M6.55453 2.60691C7.39546 1.94036 8.58911 1.94036 9.43004 2.60691L9.43156 2.60811L12.8768 5.35566C13.3438 5.71519 13.6225 6.26737 13.6306 6.85745L13.6307 6.86636L13.6307 11.743C13.6307 12.9304 12.6681 13.893 11.4807 13.893H9.72058C9.25114 13.893 8.87058 13.5124 8.87058 13.043V10.8969H7.15939V13.043C7.15939 13.5124 6.77883 13.893 6.30939 13.893H4.51902C3.33161 13.893 2.36902 12.9304 2.36902 11.743V6.86493C2.37486 6.27354 2.65408 5.7197 3.12292 5.36063L6.55453 2.60691ZM7.3634 3.62462L3.93022 6.37962L3.91597 6.39074C3.7614 6.50786 3.67169 6.68679 3.66902 6.87514V11.743C3.66902 12.2124 4.04958 12.593 4.51902 12.593H5.85939V10.2469C5.85939 9.88792 6.1504 9.59691 6.50939 9.59691H9.52058C9.87957 9.59691 10.1706 9.88792 10.1706 10.2469V12.593H11.4807C11.9501 12.593 12.3307 12.2124 12.3307 11.743V6.87161C12.327 6.68223 12.2367 6.50257 12.0818 6.38425L12.0709 6.37597L8.62253 3.62569C8.62273 3.62585 8.62232 3.62553 8.62253 3.62569C8.25513 3.33494 7.731 3.33426 7.3634 3.62462Z" fill="#FF0000"/>
</svg>
