<svg width="20" height="20" viewBox="0 0 20 20" fill="none" xmlns="http://www.w3.org/2000/svg">
<path fill-rule="evenodd" clip-rule="evenodd" d="M17.22 12.46L16.5 11.22C16.43 11.09 16.39 10.95 16.39 10.8V8.62999C16.39 5.10999 13.63 2.00999 9.99999 2.00999C6.36999 2.00999 3.60999 5.10999 3.60999 8.61999V10.79C3.60999 10.94 3.56999 11.09 3.49999 11.2L2.77999 12.45C2.17999 13.49 2.91999 14.77 4.10999 14.77H6.82999V14.83C6.82999 16.58 8.24999 18 9.99999 18C11.75 18 13.17 16.58 13.17 14.83V14.77H15.89C17.08 14.77 17.83 13.48 17.22 12.45V12.46ZM11.67 14.83C11.67 15.75 10.92 16.5 9.99999 16.5C9.07999 16.5 8.32999 15.75 8.32999 14.83V14.77H11.66V14.83H11.67Z" fill="#FFF500"/>
</svg>
