<svg width="20" height="20" viewBox="0 0 20 20" fill="none" xmlns="http://www.w3.org/2000/svg">
<path fill-rule="evenodd" clip-rule="evenodd" d="M17.2106 12.66L16.4706 11.38C16.3706 11.21 16.3206 11.01 16.3206 10.81V8.56999C16.3206 5.06999 13.5806 2.00999 10.0006 2.00999C6.42059 2.00999 3.68059 5.07999 3.68059 8.55999V10.8C3.68059 11 3.63059 11.2 3.53059 11.37L2.79059 12.66C2.28059 13.55 2.91059 14.65 3.93059 14.65H7.01059V14.98C7.01059 16.63 8.35059 17.97 10.0006 17.97C11.6506 17.97 12.9906 16.63 12.9906 14.98V14.65H16.0706C17.0906 14.65 17.7206 13.55 17.2106 12.67V12.66ZM11.9906 14.98C11.9906 16.08 11.0906 16.97 10.0006 16.97C8.91059 16.97 8.01059 16.07 8.01059 14.98V14.65H12.0006V14.98H11.9906ZM16.0706 13.64H3.92059C3.67059 13.64 3.52059 13.38 3.64059 13.16L4.38059 11.88C4.58059 11.55 4.67059 11.17 4.67059 10.8V8.55999C4.68059 5.56999 7.02059 2.99999 10.0006 2.99999C12.9806 2.99999 15.3206 5.55999 15.3206 8.55999V10.8C15.3206 11.17 15.4106 11.55 15.6106 11.88L16.3506 13.16C16.4806 13.38 16.3206 13.64 16.0706 13.64Z" fill="#FFF500"/>
</svg>
