<svg width="16" height="16" viewBox="0 0 16 16" fill="none" xmlns="http://www.w3.org/2000/svg">
<path fill-rule="evenodd" clip-rule="evenodd" d="M13.32 9.72001L12.8 8.82001C12.76 8.75001 12.74 8.66001 12.74 8.57001V7.00001C12.74 4.40001 10.7 2.10001 8.01004 2.10001C5.32004 2.10001 3.28004 4.41001 3.28004 7.00001V8.57001C3.28004 8.66001 3.26004 8.75001 3.22004 8.81001L2.70004 9.72001C2.22004 10.54 2.81004 11.56 3.76004 11.56H5.62004C5.66004 12.85 6.72004 13.89 8.02004 13.89C9.32004 13.89 10.38 12.85 10.42 11.56H12.28C13.23 11.56 13.81 10.54 13.34 9.72001H13.32ZM8.00004 12.59C7.42004 12.59 6.94004 12.13 6.90004 11.56H9.09004C9.05004 12.13 8.58004 12.59 7.99004 12.59H8.00004ZM3.88004 10.26L4.33004 9.47001C4.50004 9.19001 4.58004 8.87001 4.58004 8.56001V6.99001C4.58004 5.04001 6.11004 3.39001 8.01004 3.39001C9.91004 3.39001 11.44 5.03001 11.44 6.99001V8.56001C11.44 8.87001 11.52 9.19001 11.69 9.47001L12.14 10.26H3.88004Z" fill="#FFF500"/>
</svg>
